<svg width="89" height="100" viewBox="0 0 89 100" fill="none" xmlns="http://www.w3.org/2000/svg">
<path d="M88.7304 29.3213C88.7297 27.6444 88.371 26.1626 87.6458 24.8908C86.9333 23.6402 85.8664 22.5921 84.4353 21.7633C72.6222 14.9519 60.7977 8.16125 48.9885 1.34284C45.8048 -0.495164 42.7179 -0.428157 39.5578 1.43624C34.8559 4.20922 11.3148 17.6964 4.29992 21.7595C1.41097 23.4319 0.00520781 25.9914 0.00451344 29.3181C0 43.0164 0.00451344 56.7143 0 70.4129C0.000694375 72.0531 0.344063 73.506 1.0374 74.7587C1.75017 76.0471 2.83201 77.1241 4.2961 77.9715C11.3114 82.0347 34.8555 95.5208 39.5565 98.2945C42.7179 100.16 45.8048 100.227 48.9895 98.3879C60.7991 91.5691 72.6243 84.7789 84.4391 77.9674C85.9032 77.1202 86.985 76.0426 87.6978 74.7552C88.3901 73.5026 88.7342 72.0496 88.7349 70.4091C88.7349 70.4091 88.7349 43.0199 88.7304 29.3213Z" fill="#5C8DBC"/>
<path d="M44.5032 49.7322L1.03735 74.7588C1.75013 76.0473 2.83197 77.1242 4.29606 77.9717C11.3113 82.0349 34.8555 95.521 39.5565 98.2947C42.7179 100.16 45.8048 100.227 48.9895 98.3881C60.7991 91.5693 72.6244 84.779 84.4392 77.9676C85.9033 77.1204 86.9851 76.0427 87.6979 74.7554L44.5032 49.7322Z" fill="#1A4674"/>
<path d="M31.629 57.1453C34.1583 61.5608 38.913 64.5389 44.3673 64.5389C49.8553 64.5389 54.6371 61.5229 57.1536 57.0602L44.5031 49.7322L31.629 57.1453Z" fill="#1A4674"/>
<path d="M88.7303 29.3216C88.7296 27.6447 88.371 26.1629 87.6457 24.8911L44.5032 49.7324L87.6978 74.7556C88.3901 73.503 88.7342 72.05 88.7349 70.4095C88.7349 70.4095 88.7349 43.0202 88.7303 29.3216Z" fill="#1B598E"/>
<path d="M86.3551 51.5208H82.9798V54.8969H79.6037V51.5208H76.2287V48.1459H79.6037V44.7705H82.9798V48.1459H86.3551V51.5208ZM74.0387 51.5208H70.6637V54.8969H67.2883V51.5208H63.913V48.1459H67.2883V44.7705H70.6637V48.1459H74.0387V51.5208Z" fill="white"/>
<path d="M57.1537 57.0604C54.6373 61.5231 49.8554 64.5392 44.3675 64.5392C38.9131 64.5392 34.1584 61.561 31.6291 57.1455C30.3586 54.9298 29.6913 52.4197 29.6939 49.8656C29.6939 41.7619 36.2637 35.1924 44.3675 35.1924C49.7867 35.1924 54.5164 38.1335 57.0582 42.5039L69.8837 35.1185C64.7859 26.3187 55.2685 20.3984 44.3675 20.3984C28.0927 20.3984 14.8999 33.5916 14.8999 49.8656C14.8999 55.2047 16.3202 60.2115 18.8026 64.5301C23.8875 73.3765 33.4321 79.3332 44.3675 79.3332C55.323 79.3332 64.8824 73.3525 69.96 64.4801L57.1537 57.0604Z" fill="white"/>
</svg>
