<svg width="83" height="100" viewBox="0 0 83 100" fill="none" xmlns="http://www.w3.org/2000/svg">
<path d="M13.8322 79.1005L4.15302 81.3088V18.6241L13.8322 20.8367V79.1005Z" fill="#F68536"/>
<path d="M25.9087 82.8003L13.8322 86.2323V13.7865L25.9087 17.2142V82.8003ZM41.4004 86.6017L25.9087 92.2712V7.7476L41.4004 13.4144V86.6017ZM82.8225 79.2894L41.4004 100V0.000488281L82.8225 20.7115V79.2894Z" fill="#F68536"/>
<path d="M33.1433 4.12963L41.4003 0.000488281V100L33.1433 95.8727V4.12963ZM19.5168 10.9421L25.9087 7.7463V92.2547L19.5168 89.0589V10.9421ZM8.74057 16.331L13.8322 13.7852V86.2158L8.74057 83.6684V16.331ZM4.153 18.6242L0.000244141 20.7005V79.3017L4.153 81.3768V18.6242Z" fill="#9D5025"/>
</svg>
