<svg width="100" height="90" viewBox="0 0 100 90" fill="none" xmlns="http://www.w3.org/2000/svg">
<path d="M29.883 79.4345C26.0736 76.438 22.0099 73.565 19.2332 69.5202C13.3899 62.3863 8.89099 54.1272 5.81501 45.4475C3.95635 39.8041 3.3197 33.7531 0.923266 28.3272C-1.58355 24.3865 1.35275 20.0786 5.66958 18.8262C7.59102 18.4574 10.9704 16.6448 6.8916 17.94C3.23496 20.6237 2.8808 15.5049 6.63004 15.1805C9.18969 14.8405 10.1318 12.7454 9.25613 10.8595C6.50972 9.06782 15.9181 7.0993 11.1838 4.42613C6.25234 -0.894059 18.0823 -1.91834 15.1633 4.12376C14.4649 8.77016 23.4297 3.27211 21.3497 8.63833C23.4632 11.2147 29.2662 9.22424 29.1223 12.839C32.202 13.0509 33.2592 15.6425 36.15 15.8412C39.1465 17.1946 44.5776 18.2607 45.5977 21.6375C42.6247 23.9905 35.7415 16.7756 35.4108 23.2906C36.3085 32.914 36.0799 42.8272 39.6011 51.9913C41.2662 57.5406 45.3031 61.9087 48.9493 66.2308C52.4386 70.4634 57.164 73.4431 61.9804 75.952C66.2051 77.9451 70.76 79.2666 75.3645 80.0952C77.2321 78.6671 80.5294 73.3563 83.4432 75.5958C83.5813 78.112 77.6605 80.8558 83.1643 80.5775C86.3962 79.6029 88.6383 83.077 91.2995 79.943C93.7514 82.8479 101.491 78.0874 99.7464 84.0244C97.3871 85.5467 93.9465 84.6265 91.5835 86.7206C87.6878 84.7745 84.5857 88.4615 80.2725 87.9954C75.4828 88.8534 70.6099 89.1997 65.7532 89.207C57.7865 88.5777 49.6508 88.3124 42.0713 85.5383C37.8026 84.298 33.6353 81.8665 29.883 79.4345ZM36.6114 82.3499C40.7807 84.1525 44.8574 86.0531 49.4264 86.6259C56.6754 87.6345 64.1608 89.185 71.4359 87.7705C68.1433 86.2838 64.7393 88.3496 61.4593 86.7075C57.5254 87.5539 53.3038 86.492 49.304 85.9688C44.7559 83.9428 39.848 82.5497 35.5887 79.9205C30.2669 77.9765 38.3414 82.4131 39.7784 82.7725C43.1055 84.661 36.1202 81.8048 35.1351 81.0195C32.349 79.4564 31.9938 79.7829 34.8595 81.37C35.4365 81.708 36.0061 82.0621 36.6114 82.3499ZM28.6782 76.7435C32.7183 78.2397 28.6604 73.9029 26.8096 74.1541C25.9893 72.7311 23.6761 71.8324 25.3077 71.0681C22.3719 72.0872 22.2323 67.1928 20.8528 67.8922C17.747 66.9114 19.6444 63.4378 15.9448 61.3045C15.6069 59.0566 12.2693 57.107 11.2053 53.7166C10.7345 51.9803 7.43356 46.9955 9.46172 51.6345C11.188 56.101 14.2253 59.9261 16.753 63.7459C18.7158 67.3832 21.0338 71.1848 24.6083 73.4541C25.8136 74.6102 26.977 76.381 28.6782 76.7435ZM17.0402 63.9657C17.1815 63.3552 17.7789 65.286 17.0402 63.9657V63.9657ZM33.5166 78.5373C32.2302 78.0325 34.4111 78.1366 33.5166 78.5373V78.5373ZM35.7095 79.3377C34.7088 79.955 35.4825 78.2329 35.7095 79.3377V79.3377ZM38.4549 80.4823C36.4409 79.6976 39.7617 79.2378 38.4549 80.4823V80.4823ZM43.1599 83.1047C40.618 82.6616 43.954 81.9308 43.1599 83.1047V83.1047ZM34.1255 76.8063C31.5031 76.7885 36.1552 75.4932 34.1255 76.8063V76.8063ZM36.1845 77.8332C35.4506 78.1444 36.127 77.139 36.1845 77.8332V77.8332ZM46.4765 84.2572C48.1312 85.3018 56.1386 86.5458 51.1245 84.6856C50.2854 84.8624 41.8275 82.2934 46.4765 84.2572ZM30.1372 71.5316C27.5687 70.7626 29.9766 70.8359 30.1372 71.5316V71.5316ZM34.929 74.3241C32.3406 73.6534 36.1756 73.4546 34.929 74.3241V74.3241ZM38.9592 76.7953C36.0558 76.1179 40.7483 76.1205 38.9592 76.7953V76.7953ZM28.188 69.4088C30.1288 70.8971 36.0177 69.5992 31.161 68.5195C28.9502 67.3414 23.9685 66.5347 27.3641 69.2299L28.1875 69.4082L28.188 69.4088ZM41.6889 77.6485C38.2974 76.8617 42.4976 76.2706 41.6889 77.6485V77.6485ZM37.586 74.3884C42.3339 75.7313 33.594 71.3857 36.4147 73.8941L37.0398 74.1765L37.586 74.3884ZM45.8116 79.142C41.7506 78.5221 50.3079 79.1849 45.8116 79.142V79.142ZM26.4575 66.8067C25.3485 66.8774 26.2818 65.9697 26.4575 66.8067V66.8067ZM53.4173 83.4087C51.95 84.5339 53.5371 81.8958 53.4173 83.4087V83.4087ZM34.1302 71.5055C32.7256 71.4725 33.8582 70.7087 34.1302 71.5055V71.5055ZM26.8839 66.281C23.3502 65.1437 29.4655 66.1262 26.8839 66.281V66.281ZM18.2994 60.7322C15.4907 58.5079 17.9782 59.495 18.2994 60.7322V60.7322ZM40.8356 75.0345C40.3627 74.4951 40.6133 75.1522 40.8356 75.0345V75.0345ZM54.8627 83.642C54.099 83.9538 54.8177 82.8181 54.8627 83.642V83.642ZM39.5943 73.7523C37.393 73.4311 39.8469 72.6903 39.5943 73.7523V73.7523ZM29.1443 67.1295C26.0683 65.8311 31.0642 66.9239 29.1443 67.1295V67.1295ZM46.8212 78.1136C43.9048 77.535 49.8135 76.9282 46.8212 78.1136V78.1136ZM37.6263 71.8722C41.0752 72.3168 33.5229 69.526 36.8698 71.6221L37.6263 71.8722ZM49.6132 79.2425C52.833 77.3174 51.7716 83.7503 55.0762 79.7865C58.3352 77.4063 52.2612 82.7286 56.2783 80.2103C59.1838 78.2674 63.4749 81.1315 66.1858 82.0658C68.1349 81.9701 70.0308 83.7518 72.0291 82.6679C75.8762 81.6321 64.5055 81.131 67.4863 79.2927C63.9656 80.317 61.3657 78.0712 59.6331 75.8165C55.6846 74.9047 51.1187 72.886 49.1481 69.3915C48.3446 68.0795 50.3094 69.5762 48.4544 67.4314C46.0753 65.3153 44.8867 62.9131 43.2901 60.3404C41.3818 59.3224 41.1595 56.3265 40.9664 60.24C40.9821 57.7703 38.6626 56.1073 38.0971 56.7988C38.0866 54.4197 40.5783 55.6124 38.8342 53.8521C38.4586 51.3866 37.2229 48.8175 36.851 46.034C36.2735 44.6921 36.7694 41.8181 34.8804 44.8559C34.1925 48.0663 34.6523 40.911 35.7226 43.2708C37.1272 40.8629 35.2178 41.1459 35.1399 41.4801C36.0553 39.4489 35.719 36.567 34.9008 37.6666C35.3889 35.5134 35.6713 29.7423 34.171 30.765C35.0807 28.5134 35.8958 20.4625 31.9477 23.5322C30.348 23.5547 27.5776 24.1129 26.2682 24.7642C30.3747 27.0278 25.8549 25.5818 24.1835 25.2219C23.9659 27.3165 22.3102 26.4105 20.2418 26.4309C23.5453 26.84 18.6332 29.8103 16.7379 28.6563C14.2766 29.8328 18.8618 32.7691 16.787 33.6767C17.0418 35.0457 13.0164 33.1829 13.3323 36.3436C10.9427 35.3387 13.0033 40.0933 14.1986 38.4853C18.2633 39.5854 17.0601 42.0927 17.1632 44.475C16.5014 45.8629 13.8936 41.2123 16.5825 41.4278C14.4618 37.982 14.2363 40.1823 12.4739 41.783C12.0637 41.8992 16.9696 44.0607 13.891 45.1295C16.5998 45.5474 16.6767 47.9177 17.2286 49.4175C18.856 51.113 18.5233 47.5447 20.4709 49.5828C19.2384 47.7676 13.9418 44.4677 18.2058 45.526C18.1833 43.6987 17.4347 42.2251 18.7414 42.2612C20.0351 39.9176 17.3865 48.0386 20.303 45.0599C21.1102 44.7078 21.31 42.7142 22.7617 45.2482C24.8688 47.3219 23.5228 48.8248 20.5494 46.9259C21.0814 48.7307 24.5267 49.3752 23.8791 52.1974C24.5659 54.6791 25.5259 53.7652 26.3629 53.6214C27.0199 56.033 27.3924 54.2596 27.4238 53.1124C30.4302 53.7558 29.726 55.5334 30.6671 56.7748C32.7387 57.7101 27.701 50.4361 31.2583 54.5881C35.0007 57.9664 32.6618 59.3768 29.3033 58.8359C31.4288 58.6632 32.1146 61.7089 34.7731 61.6022C37.1978 62.7551 38.8389 67.1855 34.6601 65.341C33.2111 64.0342 28.0813 62.4219 32.271 64.9078C36.1401 66.6995 39.2129 67.7719 42.9449 70.0208C45.616 71.9276 46.7695 74.1117 47.7817 74.5433C45.5375 75.6157 41.0177 73.6874 44.3735 73.0963C42.2805 72.7149 39.9259 71.6566 41.9305 74.2649C43.6359 75.6879 47.9716 75.5377 48.749 75.6983C48.0898 77.1505 46.9594 77.2656 48.7756 77.3786C46.7491 78.4583 49.4254 78.6257 49.6132 79.2425ZM45.4695 67.5402C44.2365 66.2512 43.9179 63.8359 45.2503 65.9373C45.934 66.212 47.4401 69.8838 45.4695 67.5402ZM58.9646 76.1126C58.9871 76.697 59.7336 76.0629 58.9646 76.1126V76.1126ZM43.5224 64.3789C43.4753 62.4298 43.9686 65.8824 43.5224 64.3789V64.3789ZM42.1816 62.5741C40.6306 59.5777 44.1366 63.4226 42.1816 62.5741V62.5741ZM25.9271 51.3557C26.3754 52.9141 26.8379 51.113 25.9271 51.3557V51.3557ZM38.8629 58.3677C39.4227 56.2663 39.5205 60.1306 38.8629 58.3677V58.3677ZM29.7239 52.0128C29.08 50.8535 31.0715 53.1003 29.7239 52.0128V52.0128ZM37.5672 54.5274C36.0982 51.2354 38.6071 52.7294 37.892 55.0662L37.5672 54.5274ZM24.0417 45.5072C23.3847 44.4269 22.2982 41.2583 22.6481 40.2916C22.9646 41.8662 25.9982 47.0708 24.1364 42.4469C22.0785 38.571 26.5956 43.705 27.0607 44.6717C27.2768 45.6338 25.7911 44.4091 26.7976 46.6638C24.9614 44.0968 25.7137 48.082 24.0417 45.5072ZM19.862 42.6268C20.0336 40.1158 20.8188 44.3484 19.862 42.6268V42.6268ZM21.7421 43.2739C22.6393 41.3787 23.2633 45.9157 21.7421 43.2739V43.2739ZM17.2186 39.7748C15.6623 38.2284 14.5366 36.8034 17.2919 38.8153C18.3538 38.8567 14.9326 35.5735 17.5471 37.7728C20.2967 38.2739 18.9047 42.28 17.2186 39.7748ZM19.5947 39.713C20.0744 40.5945 20.4986 38.8174 19.5947 39.713V39.713ZM21.0568 40.1818C19.6862 37.6132 22.7193 41.2583 21.0568 40.1818V40.1818ZM18.1503 37.404C13.6263 33.378 23.8356 39.5095 18.8895 38.1505L18.1503 37.404ZM31.1134 44.9359C29.1553 43.762 30.5944 36.6716 31.2619 41.521C33.1651 40.9052 31.1568 44.0252 32.5765 43.9964C32.3526 45.9649 31.7176 46.6727 31.1128 44.9359H31.1134ZM35.9078 47.7697C36.0998 45.6327 36.3117 49.2303 35.9078 47.7697V47.7697ZM35.075 46.9468C35.097 48.0213 35.2905 46.034 35.075 46.9468V46.9468ZM19.0381 36.0815C16.1316 32.0712 27.485 40.1378 20.8993 37.0984C20.2114 36.9185 19.3833 36.8547 19.0381 36.0815ZM28.2707 40.9764C27.9955 37.5996 28.8848 41.5361 28.2707 40.9764V40.9764ZM35.2806 45.4732C35.3209 46.7454 35.8231 43.5496 35.2806 45.4732V45.4732ZM19.4832 34.5503C21.2106 34.1815 26.6422 37.5844 21.6542 35.5233C21.0997 34.9092 19.9185 35.1885 19.4832 34.5503ZM34.317 41.9447C34.5016 38.4921 35.3481 39.8825 34.3233 42.439L34.317 41.9447ZM20.7686 33.3497C21.4722 32.3176 18.9 28.6819 21.1395 32.0456C22.1072 32.8146 23.9408 33.3335 22.3217 33.6568C24.8683 35.9036 21.7008 34.2657 20.7686 33.3497ZM33.5836 40.866C34.0125 43.1704 34.0701 36.9331 33.5836 40.866V40.866ZM19.2991 29.7166C19.5832 30.4333 19.8369 29.4865 19.2991 29.7166V29.7166ZM22.6419 31.7061C23.5019 29.9013 24.2285 33.7191 22.6419 31.7061V31.7061ZM32.0702 36.9509C32.0613 36.2578 32.248 37.9595 32.0702 36.9509V36.9509ZM31.524 35.742C30.2152 32.5133 32.7413 37.4516 31.524 35.742V35.742ZM30.7205 33.6254C30.5008 32.2915 31.467 35.3015 30.7205 33.6254V33.6254ZM32.0283 31.4994C31.1301 29.917 33.1624 24.5262 33.389 27.8689C32.4411 30.4746 33.1154 31.9321 33.7766 28.4376C34.9981 25.6875 33.5129 33.8645 32.0283 31.4994ZM33.3722 23.4815C33.4591 24.0611 33.7635 23.0013 33.3722 23.4815V23.4815ZM31.128 67.7039C30.5955 67.2394 31.195 67.9995 31.128 67.7039V67.7039ZM35.7509 70.0423C38.3226 70.7025 38.3095 69.6421 35.9852 69.3277C34.735 68.1643 30.7906 66.9307 34.3217 69.1833C34.555 69.7755 35.2942 69.7619 35.7509 70.0423ZM26.6202 63.9777C28.0374 65.0344 31.9566 66.9721 28.6385 64.3805C29.7574 63.08 26.4973 62.3884 27.5786 61.519C24.828 59.8356 25.4087 59.9852 27.3359 60.0385C24.0297 58.5607 27.813 58.6711 27.6351 57.9141C26.3602 57.6625 21.3037 55.6663 24.2787 58.0779C21.2545 56.5362 23.5579 58.6523 22.644 58.4284C19.5512 57.5856 25.3977 60.784 22.1522 59.9899C23.9267 61.3961 26.9284 63.5911 22.9029 61.4777C22.3725 62.2414 25.7832 63.3981 26.6202 63.9777ZM31.4555 66.7555C28.5731 64.4412 37.3354 68.6502 31.4555 66.7555V66.7555ZM56.2082 81.7509C55.4047 82.7459 56.2841 80.5843 56.2082 81.7509V81.7509ZM58.7522 82.8217C60.1086 81.5071 58.8076 84.9153 61 82.5C61.0236 80.7705 60.932 79.7494 58.4807 81.8497C57.8048 82.2243 57.5024 83.8183 58.7522 82.8217ZM18.3679 57.4595C15.4478 55.83 17.951 55.8222 18.3679 57.4595V57.4595ZM21.0845 59.2392C17.4854 57.7253 20.0754 57.5668 21.0845 59.2392V59.2392ZM36.5392 68.5597C38.0479 69.9 43.4696 69.5432 38.3717 68.7251C37.6169 67.6087 33.5778 67.8776 36.5392 68.5597ZM57.7844 81.6808C55.5349 82.5502 60.1071 79.7321 57.7844 81.6808V81.6808ZM62.6144 85C61.6137 85.2736 62.6291 84.3743 62.6144 85V85ZM62.6217 84.1243C60.1301 84.2854 65.1934 81.3993 62.6217 84.1243V84.1243ZM11.6866 51.8658C9.49468 48.738 10.3238 47.3324 8.2104 44.779C7.81021 42.8261 4.5841 38.3948 6.54163 43.0893C8.33491 45.8352 8.86745 50.0861 11.6866 51.8658ZM61.8156 83.2585C59.8738 81.9261 66.5473 80.2003 61.8156 83.2585V83.2585ZM65.4273 84.673C63.929 84.2477 67.797 82.6386 65.4273 84.673V84.673ZM17.5628 54.0022C15.8119 53.8735 18.2408 52.9936 17.5628 54.0022V54.0022ZM64.6734 83.7068C66.9673 82.228 64.1451 82.455 64.2575 83.8429L64.6734 83.7068ZM33.5401 64.0834C32.3286 64.1686 33.4617 63.0847 33.5401 64.0834V64.0834ZM35.4642 65.1908C34.5241 65.3849 34.8527 63.9547 35.4642 65.1908V65.1908ZM68.3541 84.7065C71.2936 82.5863 66.5729 84.3006 67.7374 85.1083L68.3541 84.7065ZM67.2294 84.1625C64.7012 85.0518 69.6232 82.1563 67.2294 84.1625V84.1625ZM72.9786 87.9918C71.0263 87.6434 74.5867 86.9152 72.9786 87.9918V87.9918ZM19.0365 53.2751C21.1918 53.7579 27.6471 58.5816 23.8388 53.6088C21.8875 53.0313 23.0578 48.2625 21.0683 49.1068C22.4038 51.3379 22.1669 52.2874 19.3629 50.8807C15.8386 49.1607 17.3824 51.7334 18.0708 52.4422C17.1328 52.6557 19.3127 53.2573 19.0365 53.2751ZM9.22004 45.5218C9.60558 43.9263 5.66801 36.7438 7.36032 41.9227C7.97134 43.0077 7.90961 45.0636 9.22004 45.5218ZM27.238 56.6304C26.1285 55.7024 27.1857 56.4991 27.238 56.6304V56.6304ZM29.9703 57.266C26.9503 56.5796 29.9688 55.5763 29.9703 57.266V57.266ZM53.6475 72.1928C51.8626 72.1656 53.1961 71.0378 53.6475 72.1928V72.1928ZM54.7848 73.023C54.1288 73.1481 54.6174 72.377 54.7848 73.023V73.023ZM64.1697 78.9344C63.0434 78.8491 65.0726 78.2679 64.1697 78.9344V78.9344ZM14.1233 46.7742C11.3575 46.0612 16.7049 45.7745 14.1233 46.7742V46.7742ZM51.5634 70.3619C49.9176 70.7762 51.5346 68.69 51.5634 70.3619V70.3619ZM13.1032 44.3971C11.5694 44.0283 14.7615 43.8368 13.1032 44.3971V44.3971ZM17.917 46.7287C17.408 46.9369 17.8867 46.1794 17.917 46.7287V46.7287ZM76.6274 82.7317C78.7602 82.2991 83.6195 83.8172 84.4052 82.1668C81.8157 82.1035 75.4451 80.339 75.1438 82.5873L75.7109 82.6763L76.6274 82.7317ZM19.4466 47.1142C18.1262 47.0514 19.4838 45.4209 19.4466 47.1142V47.1142ZM6.79064 38.3351C4.6045 37.8465 6.21573 35.108 6.79064 38.3351V38.3351ZM9.80907 39.0937C7.04645 38.1614 9.84569 38.0579 9.80907 39.0937V39.0937ZM11.5333 39.9411C11.0348 39.5367 11.143 40.4506 11.5333 39.9411V39.9411ZM22.3855 46.9023C21.1761 46.5545 22.8966 46.4331 22.3855 46.9023V46.9023ZM10.385 38.0301C6.88899 37.665 10.0931 35.5929 10.385 38.0301V38.0301ZM4.19699 34.0157C3.59382 34.4394 4.10858 32.891 4.19699 34.0157V34.0157ZM5.11716 33.3204C4.32724 33.4905 4.96703 31.9865 5.11716 33.3204V33.3204ZM10.2019 36.3561C12.3525 35.5113 6.28583 34.6089 9.76252 36.1966L10.2019 36.3561ZM78.2595 78.394C76.5107 78.0037 79.6359 77.1322 78.2595 78.394V78.394ZM86.4815 82.6559C85.0931 82.8704 87.0329 81.0243 86.4815 82.6559V82.6559ZM10.723 33.6908C9.01759 34.0042 10.949 32.1125 10.723 33.6908V33.6908ZM3.4871 28.843C3.09842 26.615 3.15178 22.7041 6.86911 24.0261C1.90674 25.0111 10.3034 30.1937 9.24305 26.1018C11.3298 26.2038 13.325 24.8688 12.2301 26.8954C16.3413 26.4413 19.1913 22.8762 23.1624 23.3758C26.2556 22.9662 29.6376 22.656 32.971 21.411C35.7122 21.2132 38.3503 18.2628 36.8479 16.5135C33.1101 16.1975 29.1982 16.6652 25.0671 17.4865C20.4897 18.4375 16.3309 20.246 11.7127 21.0218C7.21071 21.6265 12.6177 22.6879 11.3288 22.9244C8.9794 23.7399 14.1301 24.2897 11.0238 25.1487C9.10547 24.7841 7.10922 24.1249 7.92844 22.1031C3.61579 22.6628 -0.173728 24.4524 3.23339 28.8409L3.4871 28.843ZM13.8785 23.5511C14.8897 19.8264 19.2954 26.6161 15.5357 24.0454C15.0869 23.7096 14.3482 23.4355 13.8785 23.5511ZM14.0752 21.7447C14.851 22.3547 15.5347 20.6577 14.0752 21.7447V21.7447ZM15.9281 21.7745C16.0599 20.0603 20.1706 22.6816 16.606 22.3918L15.9281 21.7745ZM18.4631 20.755C18.7289 21.7175 19.3891 19.6737 18.4631 20.755V20.755ZM19.1118 20.3208C20.6529 18.4689 27.8402 19.1385 22.5791 20.1403C21.1693 19.0783 20.089 20.7665 19.1118 20.3208ZM28.4915 18.8749C28.2566 13.8162 33.1509 20.6728 28.4915 18.8749V18.8749ZM31.1526 18.8607C32.1256 16.311 34.9285 17.8375 31.6025 18.3481C31.6752 18.6196 31.5052 19.6642 31.1526 18.8607ZM9.67306 32.382C6.58662 30.8372 12.5806 30.6018 9.67306 32.382V32.382ZM11.8231 32.9794C9.60767 32.5399 12.8422 31.8954 11.8231 32.9794V32.9794ZM5.48858 28.4836C3.52268 27.9982 7.14951 27.2072 5.48858 28.4836V28.4836ZM91.3345 82.1887C90.0649 82.8562 91.3826 80.7083 91.3345 82.1887V82.1887ZM82.6114 76.2356C81.4903 76.3847 82.8594 74.5312 82.6114 76.2356V76.2356ZM93.733 82.7631C96.0557 82.771 100.771 82.0412 95.7167 82.0438C94.9242 82.1678 91.096 82.1411 93.733 82.7631ZM13.7137 31.9347C15.5933 31.8055 16.6547 29.861 13.3501 29.973C8.22871 29.4425 17.8683 31.7265 12.6931 31.0731C11.9973 31.5334 13.6739 32.0618 13.7137 31.9347ZM15.3689 32.7722C14.7882 33.4136 15.1727 31.5654 15.3689 32.7722V32.7722ZM17.3327 27.5357C16.2043 27.2653 18.1487 26.524 17.3327 27.5357V27.5357ZM11.0813 17.0863C14.4361 15.9448 19.0239 14.6626 20.6074 17.6481C18.9957 15.7079 19.9572 13.7979 21.4795 16.6348C23.6327 19.5052 24.7103 15.3291 23.3104 14.3666C24.906 16.3492 26.7212 17.2861 24.3786 14.4921C26.9242 11.4303 19.2818 14.8928 17.5451 14.8583C16.7091 15.2329 8.91662 16.8451 11.0813 17.0868V17.0863ZM13.0477 13.3208C14.9608 11.877 19.6642 14.1798 16.6463 11.8859C16.3508 11.6254 10.0366 13.6253 13.0477 13.3208ZM20.0226 13.6085C22.2616 13.6661 19.0569 10.6006 21.7248 11.99C21.287 10.5582 18.6185 10.2898 17.3138 9.71806C16.5762 11.0269 18.8157 13.6263 20.0226 13.6091V13.6085ZM14.2703 7.27768C12.9128 7.81023 15.045 6.22777 14.2703 7.27768V7.27768ZM17.1213 7.96036C20.7298 7.4817 16.2017 6.40668 16.3942 7.92165L17.1213 7.96036ZM11.7985 3.79472C9.2577 0.4781 16.5767 4.35184 13.9951 0.879337C11.8226 -0.850639 9.73479 2.82641 11.798 3.79472H11.7985ZM44.4049 21.3571C45.5699 19.2913 39.5937 18.5725 43.6197 20.6247C43.9901 20.7492 43.9069 21.4999 44.4049 21.3571Z" fill="white"/>
</svg>
