<svg width="100" height="93" viewBox="0 0 100 93" fill="none" xmlns="http://www.w3.org/2000/svg">
<path d="M49.9999 92.118L68.4128 35.4492H31.5865L49.9995 92.118H49.9999Z" fill="#E24329"/>
<path d="M49.9999 92.1176L31.5865 35.4487H5.78171L49.9999 92.1176Z" fill="#FC6D26"/>
<path d="M5.78169 35.4487L0.18637 52.6702C-0.0624154 53.4358 -0.0624497 54.2605 0.186272 55.0261C0.434994 55.7918 0.919703 56.459 1.57093 56.9322L49.9998 92.1179L5.7813 35.4491L5.78169 35.4487Z" fill="#FCA326"/>
<path d="M5.78171 35.449H31.5865L20.4971 1.31757C19.9264 -0.438736 17.4418 -0.438345 16.8715 1.31757L5.78171 35.449Z" fill="#E24329"/>
<path d="M49.9998 92.1176L68.4128 35.4487H94.218L49.9995 92.1176H49.9998Z" fill="#FC6D26"/>
<path d="M94.2179 35.4487L99.8132 52.6702C100.062 53.4359 100.062 54.2606 99.8131 55.0262C99.5644 55.7918 99.0796 56.459 98.4283 56.9322L49.9998 92.1179L94.2179 35.4491V35.4487Z" fill="#FCA326"/>
<path d="M94.218 35.449H68.4128L79.5026 1.31757C80.0733 -0.438736 82.5579 -0.438345 83.1282 1.31757L94.218 35.449Z" fill="#E24329"/>
</svg>
