<svg width="100" height="67" viewBox="0 0 100 67" fill="none" xmlns="http://www.w3.org/2000/svg">
<path fill-rule="evenodd" clip-rule="evenodd" d="M97.8111 0.00138996C96.2761 0.0519965 96.7203 0.743618 93.3971 1.56457C90.0403 2.39114 85.9805 1.88508 82.3706 3.40327C72.924 7.36183 71.3945 22.6675 60.143 28.5885C52.7657 32.7551 45.2422 33.711 38.5172 35.8196C33.1192 37.9844 29.7623 39.4183 25.8037 42.8314C22.7336 45.4798 21.9857 48.0495 18.775 51.3726C15.5193 55.7979 3.17697 51.8675 0 57.4173C1.67564 58.5025 2.64275 58.8006 5.58355 58.4126C4.97627 59.5653 1.1077 61.0835 1.81057 62.7816C1.81057 62.7816 11.1615 64.4854 19.0449 59.7283C22.7223 58.2326 26.1692 55.0669 31.8821 54.3078C39.2819 53.3238 47.6207 55.8598 56.5668 56.5739C54.7169 60.2288 52.8107 62.388 50.7696 65.4019C50.1398 66.0823 51.3094 66.6839 53.4798 66.2735C57.3822 65.3063 60.2105 64.2604 63.0163 62.3205C66.6769 59.7958 68.2513 57.4848 71.3383 53.8242C74.0205 58.1258 83.4783 59.0705 85.4182 55.3537C81.8083 53.8242 81.0379 45.8678 82.2749 42.4322C83.7369 39.1596 84.7884 34.5319 85.9693 30.2304C87.032 26.3561 87.6898 20.4464 88.9606 17.4213C90.4788 13.6595 93.4309 12.4843 95.6463 10.4882C97.8618 8.49204 100.066 6.82765 99.9985 2.26182C99.976 0.777357 99.2113 -0.0435936 97.8111 0.00138996Z" fill="#1F305F"/>
<path d="M2.82262 61.9943C8.61988 62.1686 10.1943 62.0167 14.777 60.0262C18.6737 58.3337 23.8861 53.7735 28.4913 52.3003C35.2501 50.1298 42.4981 50.456 49.6899 51.305C52.0965 51.5918 54.5144 51.991 56.2406 51.8055C58.934 50.1523 59.0633 45.6652 60.7334 45.3053C60.2779 53.9872 56.5555 59.5426 52.8331 64.5808C60.6771 63.1976 65.9177 58.3 69.0891 52.2384C70.0506 50.3997 71.6475 47.3915 72.3785 45.3222C72.9576 46.6942 71.625 47.5658 72.2492 49.0615C77.2986 44.8949 79.6827 40.1491 81.7294 33.1991C84.1023 25.1583 86.5371 18.2477 88.0665 15.8692C89.5566 13.5469 91.8788 12.1131 93.9987 10.6286C96.4053 8.93611 98.5589 7.17613 98.93 3.95418C96.3884 3.71802 95.8037 3.13323 95.4269 1.8512C94.1561 2.56531 92.9866 2.72275 91.6652 2.76212C90.5181 2.79585 89.2586 2.74525 87.7179 2.90269C74.9932 4.20721 74.4027 16.6452 65.153 25.7768C64.557 26.356 63.5392 27.2107 62.8644 27.7168C60.008 29.8479 56.9491 31.0174 53.7271 32.2489C48.509 34.2394 43.5609 34.8185 38.6689 36.5392C35.0759 37.7987 31.7358 39.2438 28.7837 41.2624C28.0471 41.7685 27.0463 42.6682 26.4052 43.1911C24.6734 44.6081 23.5376 46.1769 22.4355 47.7963C21.2996 49.4607 20.2088 51.1757 18.5387 52.812C15.8341 55.466 5.7353 53.5879 2.17597 56.0508C1.78236 56.3263 1.46184 56.6525 1.24817 57.0461C3.18809 57.9289 4.48698 57.3891 6.71929 57.6308C6.99481 59.7619 2.09726 61.0215 2.82262 61.9943Z" fill="#C0765A"/>
<path fill-rule="evenodd" clip-rule="evenodd" d="M83.4783 8.16604C85.2776 9.72922 89.0562 8.4753 88.3815 5.36581C85.5812 5.12965 83.9618 6.07993 83.4783 8.16604Z" fill="#1F305F"/>
<path d="M96.0343 4.52794C95.5564 5.53445 94.6398 6.82773 94.6398 9.38617C94.6342 9.82476 94.3081 10.1284 94.3024 9.44802C94.3249 6.94581 94.9884 5.8662 95.6913 4.44922C96.0118 3.87006 96.2087 4.10622 96.0343 4.52794Z" fill="#1F305F"/>
<path d="M95.5506 4.15114C94.9827 5.10704 93.6219 6.85577 93.4027 9.40859C93.3633 9.84718 93.0034 10.1171 93.0597 9.44233C93.3071 6.95699 94.3923 5.39943 95.2189 4.0443C95.59 3.49325 95.7643 3.74628 95.5506 4.15114Z" fill="#1F305F"/>
<path d="M95.1122 3.65082C94.4655 4.55611 92.3738 6.6591 91.9352 9.17818C91.8565 9.61114 91.4797 9.84731 91.5922 9.1838C92.0477 6.72657 93.8526 4.79228 94.786 3.51587C95.2021 2.99293 95.3596 3.26283 95.1122 3.65082Z" fill="#1F305F"/>
<path d="M94.7185 3.0883C93.9537 3.898 91.4572 6.57453 90.67 9.00926C90.5294 9.42536 90.1245 9.61092 90.327 8.96428C91.1198 6.5914 93.3071 4.03858 94.4149 2.90837C94.9041 2.45291 95.0165 2.7453 94.7185 3.0883Z" fill="#1F305F"/>
</svg>
